<svg width="72" height="72" viewBox="0 0 72 72" fill="none" xmlns="http://www.w3.org/2000/svg">
<path d="M72 36C72 55.8822 55.8822 72 36 72C16.1178 72 0 55.8822 0 36C0 16.1178 16.1178 0 36 0C55.8822 0 72 16.1178 72 36Z" fill="#F0F0F2"/>
<path d="M50.0625 20.5312H21.9375C21.1608 20.5312 20.5312 21.1608 20.5312 21.9375V50.0625C20.5312 50.8392 21.1608 51.4688 21.9375 51.4688H50.0625C50.8392 51.4688 51.4688 50.8392 51.4688 50.0625V21.9375C51.4688 21.1608 50.8392 20.5312 50.0625 20.5312Z" stroke="#939199" stroke-width="3" stroke-linecap="round" stroke-linejoin="round"/>
<path d="M51.4688 41.6251L44.0332 34.1895C43.9024 34.0567 43.7464 33.9512 43.5744 33.8791C43.4024 33.8071 43.2177 33.77 43.0312 33.77C42.8448 33.77 42.6601 33.8071 42.4881 33.8791C42.3161 33.9512 42.1601 34.0567 42.0293 34.1895L34.1895 42.0294C34.0586 42.1623 33.9026 42.2678 33.7306 42.3398C33.5586 42.4118 33.374 42.4489 33.1875 42.4489C33.001 42.4489 32.8164 42.4118 32.6444 42.3398C32.4724 42.2678 32.3164 42.1623 32.1855 42.0294L28.5645 38.4083C28.4336 38.2754 28.2776 38.1699 28.1056 38.0979C27.9336 38.0259 27.749 37.9888 27.5625 37.9888C27.376 37.9888 27.1914 38.0259 27.0194 38.0979C26.8474 38.1699 26.6914 38.2754 26.5605 38.4083L20.5312 44.4376" stroke="#939199" stroke-width="3" stroke-linecap="round" stroke-linejoin="round"/>
<path d="M30.9375 32.625C32.4908 32.625 33.75 31.3658 33.75 29.8125C33.75 28.2592 32.4908 27 30.9375 27C29.3842 27 28.125 28.2592 28.125 29.8125C28.125 31.3658 29.3842 32.625 30.9375 32.625Z" stroke="#939199" stroke-width="3"/>
</svg>
