<svg width="137" height="26" viewBox="0 0 137 26" fill="none" xmlns="http://www.w3.org/2000/svg">
<path fill-rule="evenodd" clip-rule="evenodd" d="M13 26C5.8203 26 -8.82083e-07 20.1797 -5.68248e-07 13C-2.54413e-07 5.8203 5.8203 -8.82083e-07 13 -5.68248e-07C20.1797 -2.54413e-07 26 5.8203 26 13C26 20.1797 20.1797 26 13 26ZM7 21C7 22.3807 8.11929 23.5 9.5 23.5C10.8807 23.5 12 22.3807 12 21C12 19.6193 10.8807 18.5 9.5 18.5C8.11929 18.5 7 19.6193 7 21ZM9.5 7.5C8.11929 7.5 7 6.38071 7 5C7 3.61929 8.11929 2.5 9.5 2.5C10.8807 2.5 12 3.61929 12 5C12 6.38071 10.8807 7.5 9.5 7.5ZM4.5 10C5.88071 10 7 11.1193 7 12.5C7 13.8807 5.88071 15 4.5 15C3.11929 15 2 13.8807 2 12.5C2 11.1193 3.11929 10 4.5 10ZM18.1355 23.1817C16.9829 23.7219 15.7476 24 14.5 24L14.5 13.25L14.5 2.5C15.7476 2.5 16.9829 2.77806 18.1355 3.31829C19.2881 3.85853 20.3354 4.65037 21.2175 5.6486C22.0997 6.64683 22.7994 7.8319 23.2769 9.13615C23.7543 10.4404 24 11.8383 24 13.25C24 14.6617 23.7543 16.0596 23.2769 17.3638C22.7994 18.6681 22.0997 19.8532 21.2175 20.8514C20.3354 21.8496 19.2881 22.6415 18.1355 23.1817Z" fill="url(#paint0_linear_34_4583)"/>
<path d="M36 19.7714V6.70476H45.2571V8.26667H37.8095V12.4571H44.5905V14H37.8095V19.7714H36Z" fill="white"/>
<path d="M47.8682 7.86667V6H49.5444V7.86667H47.8682ZM47.8682 19.7714V9.75238H49.5444V19.7714H47.8682Z" fill="white"/>
<path d="M52.6756 19.7714V9.75238H54.028L54.1804 11.2571H54.3137C54.5804 10.8508 54.8788 10.5206 55.2089 10.2667C55.5518 10.0127 55.9264 9.82857 56.3328 9.71429C56.7518 9.5873 57.1962 9.52381 57.6661 9.52381C58.301 9.52381 58.8534 9.63175 59.3232 9.84762C59.8058 10.0635 60.1804 10.4127 60.447 10.8952C60.7264 11.3778 60.8661 12.0317 60.8661 12.8571V19.7714H59.1899V13.0857C59.1899 12.6667 59.1328 12.3238 59.0185 12.0571C58.9169 11.7905 58.7708 11.581 58.5804 11.4286C58.4026 11.2762 58.1804 11.1683 57.9137 11.1048C57.6597 11.0413 57.374 11.0095 57.0566 11.0095C56.5867 11.0095 56.1423 11.1238 55.7232 11.3524C55.3042 11.581 54.9677 11.9111 54.7137 12.3429C54.4724 12.7746 54.3518 13.2889 54.3518 13.8857V19.7714H52.6756Z" fill="white"/>
<path d="M67.3471 20C66.5217 20 65.8106 19.8159 65.2138 19.4476C64.6297 19.0794 64.1725 18.5079 63.8424 17.7333C63.5249 16.946 63.3662 15.9302 63.3662 14.6857C63.3662 13.5048 63.5312 12.5333 63.8614 11.7714C64.1916 11.0095 64.6487 10.4444 65.2328 10.0762C65.817 9.70794 66.4963 9.52381 67.2709 9.52381C67.7154 9.52381 68.1281 9.5746 68.509 9.67619C68.89 9.77778 69.2265 9.93651 69.5185 10.1524C69.8233 10.3683 70.09 10.654 70.3185 11.0095H70.4328V6H72.109V19.7714H70.7566L70.6043 18.3429H70.4709C70.1281 18.9016 69.6836 19.3206 69.1376 19.6C68.5916 19.8667 67.9947 20 67.3471 20ZM67.7471 18.5333C68.382 18.5333 68.8963 18.3937 69.29 18.1143C69.6836 17.8349 69.9693 17.4286 70.1471 16.8952C70.3376 16.3619 70.4328 15.7016 70.4328 14.9143V14.6095C70.4328 13.9238 70.363 13.346 70.2233 12.8762C70.0836 12.4063 69.8932 12.0317 69.6519 11.7524C69.4106 11.473 69.1312 11.2762 68.8138 11.1619C68.4963 11.0476 68.1598 10.9905 67.8043 10.9905C67.182 10.9905 66.6741 11.1175 66.2805 11.3714C65.8868 11.6127 65.5947 12 65.4043 12.5333C65.2138 13.054 65.1185 13.7333 65.1185 14.5714V14.9714C65.1185 15.8349 65.2201 16.5333 65.4233 17.0667C65.6265 17.5873 65.9185 17.9619 66.2995 18.1905C66.6932 18.419 67.1757 18.5333 67.7471 18.5333Z" fill="white"/>
<path d="M75.5978 19.7714V6.70476H78.3978L81.3692 15.181C81.4454 15.4095 81.5216 15.6635 81.5978 15.9429C81.6867 16.2095 81.7629 16.4635 81.8264 16.7048C81.9026 16.946 81.9597 17.1556 81.9978 17.3333H82.1311C82.1692 17.1429 82.22 16.927 82.2835 16.6857C82.347 16.4317 82.4168 16.1714 82.493 15.9048C82.5692 15.6381 82.6391 15.3968 82.7026 15.181L85.674 6.70476H88.4549V19.7714H86.6454V12.1143C86.6454 11.7206 86.6518 11.2952 86.6645 10.8381C86.6772 10.3683 86.6899 9.94286 86.7026 9.56191C86.7153 9.16825 86.7216 8.88889 86.7216 8.72381H86.5692C86.5311 8.88889 86.4676 9.12381 86.3787 9.42857C86.2899 9.72064 86.1946 10.0317 86.093 10.3619C86.0041 10.6794 85.9216 10.9651 85.8454 11.219L82.7787 19.7714H81.2168L78.1502 11.219C78.074 11.0032 77.9914 10.7556 77.9026 10.4762C77.8264 10.1841 77.7438 9.88571 77.6549 9.58095C77.5788 9.27619 77.5026 8.99048 77.4264 8.72381H77.293C77.3057 9.00318 77.3121 9.35238 77.3121 9.77143C77.3248 10.1778 77.3311 10.5905 77.3311 11.0095C77.3438 11.4159 77.3502 11.7841 77.3502 12.1143V19.7714H75.5978Z" fill="white"/>
<path d="M96.0446 20C95.0287 20 94.1716 19.8159 93.4732 19.4476C92.7875 19.0667 92.2605 18.4889 91.8922 17.7143C91.5367 16.9397 91.3589 15.9556 91.3589 14.7619C91.3589 13.5556 91.5367 12.5714 91.8922 11.8095C92.2605 11.0349 92.7875 10.4635 93.4732 10.0952C94.1716 9.71429 95.0287 9.52381 96.0446 9.52381C97.0605 9.52381 97.9113 9.71429 98.597 10.0952C99.2954 10.4635 99.8224 11.0349 100.178 11.8095C100.533 12.5714 100.711 13.5556 100.711 14.7619C100.711 15.9556 100.533 16.9397 100.178 17.7143C99.8224 18.4889 99.2954 19.0667 98.597 19.4476C97.9113 19.8159 97.0605 20 96.0446 20ZM96.0446 18.5905C96.6922 18.5905 97.2319 18.4635 97.6637 18.2095C98.0954 17.9556 98.4192 17.5619 98.6351 17.0286C98.8637 16.4825 98.9779 15.7968 98.9779 14.9714V14.5524C98.9779 13.7143 98.8637 13.0286 98.6351 12.4952C98.4192 11.9619 98.0954 11.5683 97.6637 11.3143C97.2319 11.0603 96.6922 10.9333 96.0446 10.9333C95.397 10.9333 94.851 11.0603 94.4065 11.3143C93.9748 11.5683 93.651 11.9619 93.4351 12.4952C93.2192 13.0286 93.1113 13.7143 93.1113 14.5524V14.9714C93.1113 15.7968 93.2192 16.4825 93.4351 17.0286C93.651 17.5619 93.9748 17.9556 94.4065 18.2095C94.851 18.4635 95.397 18.5905 96.0446 18.5905Z" fill="white"/>
<path d="M105.877 19.7714L102.163 9.75238H103.915L105.744 14.7619C105.833 15.0032 105.934 15.3079 106.049 15.6762C106.163 16.0317 106.277 16.4 106.391 16.781C106.518 17.1492 106.62 17.4794 106.696 17.7714H106.791C106.88 17.4921 106.982 17.1683 107.096 16.8C107.21 16.419 107.325 16.0508 107.439 15.6952C107.566 15.327 107.674 15.0159 107.763 14.7619L109.572 9.75238H111.268L107.553 19.7714H105.877Z" fill="white"/>
<path d="M113.357 7.86667V6H115.033V7.86667H113.357ZM113.357 19.7714V9.75238H115.033V19.7714H113.357Z" fill="white"/>
<path d="M122.164 20C121.174 20 120.336 19.8159 119.65 19.4476C118.977 19.0667 118.463 18.4889 118.107 17.7143C117.764 16.9397 117.593 15.9556 117.593 14.7619C117.593 13.5556 117.764 12.5714 118.107 11.8095C118.463 11.0349 118.983 10.4635 119.669 10.0952C120.355 9.71429 121.212 9.52381 122.24 9.52381C123.18 9.52381 123.967 9.70794 124.602 10.0762C125.237 10.4317 125.713 10.9714 126.031 11.6952C126.361 12.4064 126.526 13.3016 126.526 14.381V15.181H119.326C119.352 15.981 119.466 16.6413 119.669 17.1619C119.885 17.6698 120.202 18.0444 120.621 18.2857C121.04 18.5143 121.567 18.6286 122.202 18.6286C122.634 18.6286 123.009 18.5778 123.326 18.4762C123.656 18.3619 123.929 18.2032 124.145 18C124.374 17.7968 124.545 17.5556 124.659 17.2762C124.774 16.9968 124.837 16.6921 124.85 16.3619H126.488C126.475 16.8952 126.374 17.3905 126.183 17.8476C125.993 18.2921 125.713 18.673 125.345 18.9905C124.977 19.3079 124.526 19.5556 123.993 19.7333C123.459 19.9111 122.85 20 122.164 20ZM119.364 13.9238H124.793C124.793 13.3651 124.729 12.8952 124.602 12.5143C124.475 12.1333 124.291 11.8222 124.05 11.581C123.821 11.3397 123.548 11.1683 123.231 11.0667C122.926 10.9524 122.577 10.8952 122.183 10.8952C121.599 10.8952 121.104 11.0032 120.698 11.219C120.291 11.4349 119.98 11.7651 119.764 12.2095C119.548 12.654 119.415 13.2254 119.364 13.9238Z" fill="white"/>
<path d="M132.633 20C131.948 20 131.344 19.9302 130.824 19.7905C130.303 19.6508 129.871 19.4476 129.529 19.181C129.186 18.9143 128.925 18.5968 128.748 18.2286C128.57 17.8603 128.481 17.4413 128.481 16.9714C128.481 16.9079 128.481 16.8508 128.481 16.8C128.481 16.7365 128.487 16.6857 128.5 16.6476H130.157C130.144 16.6984 130.138 16.7429 130.138 16.781C130.138 16.819 130.138 16.8571 130.138 16.8952C130.151 17.3397 130.265 17.6889 130.481 17.9429C130.71 18.1968 131.021 18.3746 131.414 18.4762C131.808 18.5778 132.246 18.6286 132.729 18.6286C133.148 18.6286 133.535 18.5778 133.89 18.4762C134.246 18.3619 134.525 18.1968 134.729 17.981C134.944 17.7524 135.052 17.4667 135.052 17.1238C135.052 16.7048 134.913 16.3873 134.633 16.1714C134.367 15.9429 134.011 15.7651 133.567 15.6381C133.122 15.5111 132.659 15.3778 132.176 15.2381C131.77 15.1238 131.363 14.9968 130.957 14.8571C130.551 14.7175 130.183 14.546 129.852 14.3429C129.535 14.1397 129.275 13.8794 129.071 13.5619C128.881 13.2317 128.786 12.819 128.786 12.3238C128.786 11.8794 128.875 11.4857 129.052 11.1429C129.243 10.8 129.51 10.5079 129.852 10.2667C130.195 10.0254 130.608 9.84762 131.09 9.73333C131.586 9.60635 132.132 9.54286 132.729 9.54286C133.363 9.54286 133.916 9.6127 134.386 9.75238C134.868 9.89206 135.268 10.0889 135.586 10.3429C135.903 10.5968 136.138 10.8889 136.29 11.219C136.443 11.5365 136.519 11.8794 136.519 12.2476C136.519 12.3238 136.519 12.4 136.519 12.4762C136.519 12.5397 136.513 12.5905 136.5 12.6286H134.862V12.419C134.862 12.1651 134.792 11.9238 134.652 11.6952C134.525 11.454 134.297 11.2635 133.967 11.1238C133.649 10.9714 133.205 10.8952 132.633 10.8952C132.265 10.8952 131.948 10.927 131.681 10.9905C131.414 11.0413 131.192 11.1302 131.014 11.2571C130.837 11.3714 130.703 11.5111 130.614 11.6762C130.525 11.8286 130.481 12.0064 130.481 12.2095C130.481 12.5397 130.589 12.7937 130.805 12.9714C131.021 13.1492 131.306 13.2952 131.662 13.4095C132.03 13.5238 132.424 13.6508 132.843 13.7905C133.287 13.9175 133.738 14.0508 134.195 14.1905C134.665 14.3175 135.09 14.4825 135.471 14.6857C135.865 14.8889 136.176 15.1683 136.405 15.5238C136.646 15.8667 136.767 16.3238 136.767 16.8952C136.767 17.4286 136.665 17.8921 136.462 18.2857C136.259 18.6794 135.967 19.0032 135.586 19.2571C135.217 19.5111 134.779 19.6952 134.271 19.8095C133.776 19.9365 133.23 20 132.633 20Z" fill="white"/>
<defs>
<linearGradient id="paint0_linear_34_4583" x1="26" y1="0" x2="1.27788" y2="29.1626" gradientUnits="userSpaceOnUse">
<stop stop-color="#FFEE58"/>
<stop offset="1" stop-color="#FF8F00"/>
</linearGradient>
</defs>
</svg>
